<?xml version="1.0" encoding="UTF-8" standalone="no"?>
<!-- Created with Inkscape (http://www.inkscape.org/) -->

<svg
   version="1.1"
   id="svg74"
   width="264.27234"
   height="251.83463"
   viewBox="0 0 264.27234 251.83463"
   xmlns="http://www.w3.org/2000/svg"
   xmlns:svg="http://www.w3.org/2000/svg">
  <defs
     id="defs78" />
  <g
     id="g80"
     transform="translate(-19.066196,-21.201908)">
    <g
       id="g242"
       transform="translate(-0.22912354,-1.9634765)">
      <path
         style="fill:#a8cde8"
         d="M 64.380515,267.75 C 28.843808,225.22555 13.060455,166.00468 21.544676,107.02525 24.286348,87.966079 34.748017,50.955254 38.4745,47.131676 40.88683,44.656491 42,46.924657 42,54.315145 c 0,22.889909 6.610839,55.097395 17.437586,84.954535 8.486535,23.40349 16.143173,39.19771 30.68154,63.29029 C 94.453607,209.74295 98,216.27959 98,217.08583 c 0,0.80625 -2.100386,4.82926 -4.667523,8.94003 -8.674433,13.89043 -15.589993,30.26367 -18.303784,43.33593 C 74.157662,273.55752 73.420842,275 72.148689,275 c -0.940233,0 -4.435911,-3.2625 -7.768174,-7.25 z M 108,258.71641 c -3.51393,-0.77716 -5.5,-1.72926 -5.5,-2.63664 0,-0.86504 5.08184,-3.62391 13,-7.05754 20.43899,-8.86314 32.24981,-15.4782 49,-27.44412 19.32498,-13.80529 39.46412,-32.50853 53.84261,-50.00369 4.48656,-5.45906 9.11723,-11.06814 10.29038,-12.46462 l 2.13298,-2.53904 9.36702,1.95753 c 13.33112,2.78595 28.62285,2.35378 40.12194,-1.13392 8.84154,-2.68166 -12.53377,29.86625 -32.97126,50.20491 -25.53521,25.41173 -52.89648,40.91842 -87.28367,49.46701 -10.51797,2.61475 -42.98062,3.64489 -52,1.65012 z M 274,132.33351 C 224.78155,102.064 164.08468,84.122147 101.74541,81.415463 L 85.990819,80.73142 80.910258,71.016279 C 73.923277,57.655646 62.947183,43.723557 53.345143,36.027542 44.161485,28.666859 43.254402,27.4694 45.821555,26.095501 c 7.126069,-3.813757 56.206905,-3.933642 77.479435,-0.189253 58.18828,10.242295 106.80274,37.540609 140.6037,78.952702 10.07559,12.34436 20.72905,29.30662 19.57716,31.17042 -0.90706,1.46766 -1.3955,1.27727 -9.48185,-3.69586 z"
         id="path256" />
      <path
         style="fill:#98b4c8"
         d="M 63.313379,265.28596 C 26.316239,219.33959 12.388813,159.46711 24.050697,96.5 c 3.309558,-17.869609 13.163894,-49 15.510967,-49 0.516085,0 1.475628,6.473408 2.132318,14.385351 2.069861,24.938132 5.606959,42.794529 12.951123,65.381399 8.814127,27.10771 19.391101,50.00159 35.083081,75.93739 l 8.437991,13.94636 -2.426477,3.67475 C 86.459097,234.88015 79.074179,250.8434 75.534884,264.5 c -1.42175,5.48592 -2.881912,9.11165 -3.739655,9.28596 -0.77395,0.15728 -4.590782,-3.66772 -8.48185,-8.5 z M 117.5,258.57255 c -0.55,-0.23073 -3.61314,-0.71453 -6.80698,-1.07511 -3.28116,-0.37043 -5.65771,-1.10338 -5.4638,-1.68509 0.18874,-0.56623 3.92688,-2.48456 8.30697,-4.26296 30.68758,-12.45977 60.98592,-32.99457 87.04974,-58.99826 8.29726,-8.27812 18.58388,-19.43863 22.85916,-24.80113 4.27528,-5.3625 7.83661,-9.74409 7.91407,-9.73686 0.0775,0.007 4.41584,0.90131 9.64084,1.98686 11.26976,2.34141 22.88425,2.5194 32.43102,0.49699 3.81206,-0.80755 7.1263,-1.273 7.36497,-1.03433 0.70834,0.70834 -6.2258,12.51264 -12.47763,21.24123 -28.66095,40.01543 -69.61193,67.39736 -113.31836,75.77047 -7.90034,1.51352 -35.24649,3.04358 -37.5,2.09819 z m 153,-129.14973 C 222.56763,100.31934 154.96912,81.058823 100.5,80.985523 93.9,80.976641 88.022334,80.638765 87.438521,80.234687 86.854707,79.830609 84.570251,76.125 82.361953,72 73.552153,55.543701 64.296442,43.741144 53.689237,35.437559 49.517605,32.171902 46.195828,28.844648 46.307512,28.043663 46.592666,25.998561 52.141715,25.052229 69.378263,24.109186 153.58723,19.501961 231.49103,56.26135 274.71798,121 c 2.75432,4.125 5.7561,8.9625 6.67062,10.75 1.57139,3.07142 1.56519,3.24691 -0.11292,3.19371 -0.97662,-0.031 -5.82568,-2.51536 -10.77568,-5.52089 z"
         id="path254" />
      <path
         style="fill:#658eac"
         d="M 63.903572,265.25 C 41.670356,237.71939 27.705902,204.72585 22.448556,167.30505 20.650934,154.50992 20.404407,126.29984 21.978354,113.5 24.404177,93.772444 32.623728,61.488969 37.762213,51.506615 c 1.423213,-2.764824 1.600284,-2.841179 2.319041,-1 0.427997,1.096362 0.809804,5.007838 0.848461,8.692169 0.193564,18.448312 5.52213,45.322616 14.038277,70.801216 9.277832,27.75741 21.108254,52.89253 36.081522,76.65945 3.272767,5.19483 5.950486,9.867 5.950486,10.38262 0,0.51561 -2.005447,4.06617 -4.456548,7.89014 -8.370233,13.05841 -14.867007,27.78223 -18.010546,40.81779 -1.066993,4.42459 -2.259302,7.25 -3.05946,7.25 -0.721114,0 -4.127557,-3.4875 -7.569874,-7.75 z m 50.298058,-7.49426 c -4.5641,-0.53105 -8.15784,-1.38711 -7.98609,-1.90235 0.17174,-0.51524 4.80601,-2.87673 10.29836,-5.24774 41.52328,-17.92537 80.47579,-48.19066 108.14038,-84.02286 3.21515,-4.16437 6.58509,-7.5741 7.48876,-7.57719 0.90367,-0.003 5.15532,0.72076 9.44811,1.60852 7.72627,1.59783 26.78465,1.49611 35.15885,-0.18766 2.12721,-0.4277 3.25,-0.26499 3.25,0.47098 0,0.61844 -2.31692,4.83201 -5.14872,9.3635 -19.14542,30.63683 -46.57314,56.02741 -76.35128,70.68042 -21.13386,10.39939 -38.14198,15.30494 -59.07719,17.03927 -13.41763,1.11155 -13.76148,1.10848 -25.22118,-0.22489 z M 271,128.91362 C 220.42916,98.926346 153.6315,80.064216 97.815637,80.010317 L 87.131274,80 81.980485,70.150569 C 74.919883,56.649156 63.930946,42.672914 54.655847,35.397821 50.520288,32.154019 47.105903,28.98996 47.068325,28.366577 46.973162,26.787939 50.258242,26.234347 67.74,24.883045 c 40.40194,-3.122982 84.07912,5.327906 121.76,23.558754 36.37404,17.598573 64.72786,42.270052 85.86259,74.711531 5.3693,8.24179 6.55831,10.87497 4.88741,10.82362 -0.4125,-0.0127 -4.575,-2.29117 -9.25,-5.06333 z"
         id="path252" />
      <path
         style="fill:#1693ee"
         d="M 63.828722,263.72861 C 25.802234,216.59042 12.551579,151.50695 27.644101,86 30.154772,75.10279 38.064617,51.921902 39.061989,52.538311 39.577895,52.857159 40,55.467413 40,58.338876 40,66.523564 42.821059,87.378587 45.6355,100 53.331261,134.51178 67.788984,169.69992 87.897895,202.86095 92.354053,210.20947 96,216.61323 96,217.09153 c 0,0.4783 -1.502988,3.24087 -3.339973,6.13905 -9.085208,14.33358 -15.295976,28.04243 -18.60141,41.05836 -0.995634,3.92055 -2.203628,7.25904 -2.68443,7.41888 -0.480803,0.15983 -3.876262,-3.43081 -7.545465,-7.97921 z m 50.372908,-5.97287 c -4.5641,-0.53105 -8.15784,-1.38711 -7.98609,-1.90235 0.17174,-0.51524 4.80601,-2.87673 10.29836,-5.24774 41.52328,-17.92537 80.47579,-48.19066 108.14038,-84.02286 3.21515,-4.16437 6.58509,-7.5741 7.48876,-7.57719 0.90367,-0.003 5.15532,0.72076 9.44811,1.60852 7.72627,1.59783 26.78465,1.49611 35.15885,-0.18766 2.12721,-0.4277 3.25,-0.26499 3.25,0.47098 0,0.61844 -2.31692,4.83201 -5.14872,9.3635 -19.14542,30.63683 -46.57314,56.02741 -76.35128,70.68042 -21.13386,10.39939 -38.14198,15.30494 -59.07719,17.03927 -13.41763,1.11155 -13.76148,1.10848 -25.22118,-0.22489 z M 269.5,126.90869 c -4.4,-2.71068 -13.85,-7.80445 -21,-11.31949 C 202.39744,92.924576 149.30741,80.008697 97,78.731892 L 87.5,78.5 82.943453,69.898091 C 74.733286,54.398828 63.583177,40.472912 52.798146,32.248142 46.662848,27.569303 46.953021,27.444091 67.497234,25.905363 99.641794,23.497788 138.77326,29.1678 169.5,40.685206 c 42.35673,15.876711 79.14281,44.370301 102.89279,79.698214 5.80868,8.64037 7.3747,11.66915 5.9642,11.53519 -0.47135,-0.0448 -4.45699,-2.29923 -8.85699,-5.00992 z"
         id="path250" />
      <path
         style="fill:#1a5f90"
         d="M 63.828722,263.72861 C 25.802234,216.59042 12.551579,151.50695 27.644101,86 30.154772,75.10279 38.064617,51.921902 39.061989,52.538311 39.577895,52.857159 40,55.467413 40,58.338876 40,66.523564 42.821059,87.378587 45.6355,100 53.331261,134.51178 67.788984,169.69992 87.897895,202.86095 92.354053,210.20947 96,216.61323 96,217.09153 c 0,0.4783 -1.502988,3.24087 -3.339973,6.13905 -9.085208,14.33358 -15.295976,28.04243 -18.60141,41.05836 -0.995634,3.92055 -2.203628,7.25904 -2.68443,7.41888 -0.480803,0.15983 -3.876262,-3.43081 -7.545465,-7.97921 z M 269.5,126.90869 c -4.4,-2.71068 -13.85,-7.80445 -21,-11.31949 C 202.39744,92.924576 149.30741,80.008697 97,78.731892 L 87.5,78.5 82.943453,69.898091 C 74.733286,54.398828 63.583177,40.472912 52.798146,32.248142 46.662848,27.569303 46.953021,27.444091 67.497234,25.905363 99.641794,23.497788 138.77326,29.1678 169.5,40.685206 c 42.35673,15.876711 79.14281,44.370301 102.89279,79.698214 5.80868,8.64037 7.3747,11.66915 5.9642,11.53519 -0.47135,-0.0448 -4.45699,-2.29923 -8.85699,-5.00992 z"
         id="path248" />
      <path
         style="fill:#244e6e"
         d="M 64.365799,264.20967 C 42.350381,236.53996 28.162835,202.91033 23.500514,167.34414 20.520075,144.60806 21.968639,112.5402 26.991174,90.068996 30.825412,72.914316 37.460672,52.548643 38.9214,53.451423 c 0.422852,0.261337 1.049207,5.329177 1.3919,11.261867 2.41447,41.79923 19.354118,91.4944 46.730089,137.0902 l 9.188302,15.3035 -3.639165,5.6965 C 83.96851,236.30295 76.563304,253.27007 72.975861,267.75 c -0.579122,2.3375 -1.373104,4.23185 -1.764405,4.20967 -0.391301,-0.0222 -3.471847,-3.50968 -6.845657,-7.75 z"
         id="path246" />
      <path
         style="fill:#05365a"
         d="M 65.28941,263.75 C 43.102136,236.34371 28.67435,201.45707 24.047457,164.02623 23.471356,159.36566 23,148.02621 23,138.82745 23,114.0618 25.984121,94.364924 33.48552,69.617112 35.418484,63.240084 37,57.792449 37,57.511258 37,57.230066 37.45,57 38,57 c 0.55,0 1,2.001953 1,4.448784 0,7.056789 2.844911,27.02423 5.620785,39.450346 7.590384,33.9781 22.154776,69.45082 41.835241,101.89299 l 8.670058,14.29211 -3.953919,6.26059 C 82.512592,237.05629 72,261.59132 72,268.09018 c 0,3.1345 -1.383982,2.23938 -6.71059,-4.34018 z"
         id="path244" />
    </g>
  </g>
</svg>
